<svg width="512" height="512" viewBox="0 0 512 512" fill="none" xmlns="http://www.w3.org/2000/svg">
  <rect width="512" height="512" rx="96" fill="#0369A1"/>
  <path d="M122 180C122 158 140 140 162 140H290C312 140 330 158 330 180V214H362C376 214 389 221 397 233L430 283C435 291 438 300 438 310V346C438 368 420 386 398 386H384C378 406 359 420 337 420C315 420 296 406 290 386H217C211 406 192 420 170 420C148 420 129 406 123 386H114C92 386 74 368 74 346V228C74 201 95 180 122 180Z" fill="white"/>
  <path d="M330 252H365L397 301H330V252Z" fill="#BAE6FD"/>
  <circle cx="170" cy="371" r="25" fill="#0F172A"/>
  <circle cx="337" cy="371" r="25" fill="#0F172A"/>
</svg>
